<svg width="23" height="22" viewBox="0 0 23 22" xmlns="http://www.w3.org/2000/svg">
<g clip-path="url(#clip0_1369_3285)">
<path d="M18.4882 1.18042C17.689 1.36085 16.8861 1.54212 16.5875 2.03885L14.2759 6.4124L1.86423 9.21454L1.36136 10.612L10.8591 11.4648L9.24763 15.251L5.64569 16.0642L4.74136 17.5523L7.33988 17.8202L7.6362 19.0372C7.76895 19.4686 8.2349 19.7566 8.63261 19.6668L9.83326 19.3958L11.2251 21.6493L12.1294 20.1613L11.2405 16.5103L13.8483 13.3537L18.8243 21.6469L19.8278 20.5657L16.7655 7.98882L19.5776 3.93156C19.88 3.43399 19.6828 2.62393 19.4846 1.81006C19.3865 1.40693 18.8859 1.09063 18.4882 1.18042Z"/>
</g>
<defs>
<clipPath id="clip0_1369_3285">
<rect width="22.8468" height="22" transform="translate(0.0770264)"/>
</clipPath>
</defs>
</svg>
